<svg width="49" height="48" viewBox="0 0 49 48" fill="none" xmlns="http://www.w3.org/2000/svg">
<g clip-path="url(#clip0_308_44)">
<path d="M17.8311 4.08102C17.8041 4.09561 17.7771 4.11026 17.75 4.125C17.6758 4.16544 17.5666 4.21569 17.4276 4.27965C16.2974 4.79974 13.1979 6.22613 10.9082 10.6531C9.07143 14.2041 9.43878 19.1633 10.1735 21.9184C11.0918 24.7347 15.1362 31.4211 22.602 31.2245C25.5423 30.9983 26.5504 30.3892 27.3143 29.9276C27.3776 29.8894 27.4391 29.8522 27.5 29.8163C28.2755 29.2449 29.8755 27.502 30.3163 25.3469C30.7571 23.1918 30.4206 20.9634 28.602 19.3469C28.2316 19.0177 27.87 18.8048 27.4457 18.5551L27.4388 18.551C26.6922 18.1116 25.73 17.8543 23.5816 17.449C24.0714 17.2531 25.8061 17.1224 26.5816 17.2041C26.706 17.215 26.8499 17.2241 27.0117 17.2342C28.6549 17.337 32.1425 17.5554 35.7653 21.1225C38.0918 23.3266 40.7719 27.0393 38.7653 35.3265C37.9658 38.6285 36.1479 40.9605 34.4699 42.4871C41.038 38.9375 45.5 31.9898 45.5 24C45.5 12.402 36.098 3 24.5 3C22.1688 3 19.9264 3.37985 17.8311 4.08102ZM48.5 24C48.5 37.2548 37.7548 48 24.5 48C11.2452 48 0.5 37.2548 0.5 24C0.5 10.7452 11.2452 0 24.5 0C37.7548 0 48.5 10.7452 48.5 24Z" fill="black"/>
</g>
<defs>
<clipPath id="clip0_308_44">
<rect width="48" height="48" fill="white" transform="translate(0.5)"/>
</clipPath>
</defs>
</svg>
