<svg width="83" height="35" viewBox="0 0 83 35" fill="none" xmlns="http://www.w3.org/2000/svg">
<g clip-path="url(#clip0_308_46)">
<path d="M29.3314 0.533844C28.5453 0.737975 26.7984 1.14624 25.4882 1.40869C24.1489 1.67115 23.0716 2.02108 23.0716 2.16689C23.0716 2.34186 23.3337 2.83761 23.683 3.30419L24.2653 4.14988L25.3717 3.59581C26.6237 2.95425 29.9137 2.28354 30.3795 2.57515C30.7289 2.77928 30.5833 5.05388 30.0302 8.3783C29.6225 10.9445 29.5934 10.9445 28.7491 10.3905C28.0794 9.95302 27.9339 9.95302 27.0313 10.3905C26.4781 10.6529 25.6046 10.9445 25.1097 11.032L24.2071 11.2362L24.2945 9.6614L24.3818 8.08668L26.5363 7.59093C27.7301 7.32848 28.8073 6.97854 28.9529 6.83273C29.0694 6.71609 28.8655 6.27867 28.4579 5.89957L27.7301 5.19969L25.8958 5.84124C24.9059 6.19118 24.0033 6.4828 23.8868 6.4828C23.7704 6.4828 23.4792 5.78292 23.2463 4.90807C22.6931 3.01258 21.6159 1.96276 20.4512 2.25438C19.4613 2.51683 19.4031 2.60431 19.9272 3.18754C20.888 4.26652 21.7032 6.42447 22.0526 8.66991C22.2564 9.95302 22.4602 11.1778 22.5184 11.4111C22.6058 11.7027 22.2564 11.9069 21.4703 12.0818C19.8981 12.4318 19.7525 12.6651 20.4512 13.5691C21.0044 14.269 21.1209 14.2981 21.7032 13.9482C22.7513 13.2775 27.2933 11.9652 28.1959 12.0818C28.8655 12.1402 29.0694 12.3443 29.1858 13.0442C29.3896 14.2106 30.3795 14.3856 31.0492 13.3358C31.6315 12.4318 32.4176 9.45727 33.1164 5.37466L33.6404 2.37102L32.5341 1.23372C31.2821 -0.0493859 31.3695 -0.0493861 29.3314 0.533844Z" fill="black"/>
<path d="M7.6407 1.35034C7.6407 1.58363 7.78627 2.1377 7.93185 2.57512C8.19389 3.21668 8.07742 3.62494 7.23308 5.14133C6.67989 6.13283 5.28236 8.17413 4.14687 9.66137C3.01137 11.1486 2.13792 12.4608 2.22526 12.5483C2.60376 12.8983 9.41672 7.56174 9.79522 6.62857C10.0281 5.95786 10.5231 6.10366 10.7269 6.92019C10.8434 7.38677 11.1054 7.64923 11.3966 7.62007C12.3282 7.53258 12.3282 7.67839 11.251 9.13646C10.6396 9.95299 10.1446 10.9153 10.1155 11.236C10.0864 11.7026 9.67876 11.9359 8.223 12.3442C7.23308 12.6358 6.33051 12.9274 6.24316 13.0149C6.18493 13.1024 6.30139 13.4815 6.56343 13.8606L7.02928 14.5896L8.42681 13.8897C10.6105 12.8399 14.3372 11.9359 14.8613 12.3733C15.3562 12.8108 15.1815 15.0271 14.3372 18.6723C13.6093 21.7051 13.2891 22.3758 12.7359 21.9384C12.4447 21.676 12.1827 21.7051 11.7168 21.9384C11.3674 22.1134 11.0472 22.2299 10.9889 22.1716C10.9598 22.1133 11.0472 21.2677 11.251 20.2471C11.5421 18.5557 11.6877 18.3515 12.6776 17.7682C13.2599 17.4474 13.7549 17.0683 13.7549 16.9517C13.7549 16.5726 12.8814 16.0477 12.5321 16.1935C12.3282 16.2518 12.0371 16.3686 11.8624 16.4269C11.6877 16.4852 11.6004 16.106 11.6586 15.4645C11.7751 14.3272 11.2219 13.7731 9.96991 13.7731C9.50407 13.7731 9.41673 13.9189 9.50407 14.4146C10.0864 17.185 10.0864 17.2143 8.83442 17.8558C7.40777 18.5557 7.34954 18.5848 7.34954 17.9141C7.34954 17.1268 6.44697 14.5605 6.01024 14.0355C5.5444 13.5106 3.88483 12.9274 3.33164 13.1315C2.92403 13.2482 2.83668 14.0647 3.27341 14.0647C3.73925 14.0647 5.02032 16.5144 6.01024 19.3722C6.53432 20.8594 7.05839 22.2884 7.17485 22.58C7.34954 22.9591 7.17485 23.0757 6.21405 23.2507C4.93298 23.4548 4.75829 23.7755 5.45705 24.767C5.89378 25.3794 5.95201 25.3795 7.00016 24.9421C8.223 24.4172 11.6877 23.3965 12.2118 23.3965C12.4156 23.3965 12.6485 23.8631 12.765 24.4172C12.8814 25.1462 13.1144 25.4377 13.4637 25.4377C14.4537 25.4377 15.6765 23.0466 17.1031 18.1474C17.5108 16.7768 18.1222 14.9687 18.4424 14.123C19.0248 12.665 19.0539 12.5483 18.5589 12.0234C17.569 10.9153 15.8221 9.89466 15.4436 10.1862C14.9195 10.5945 12.3865 11.411 12.1827 11.236C12.0662 11.0902 14.3954 8.81569 16.5208 6.97851L17.3943 6.24947L16.5208 5.3163C15.3853 4.12068 14.7157 4.00404 13.3182 4.73307C11.7168 5.5496 11.0763 5.52043 11.3092 4.61643C11.4839 3.85823 10.8725 2.42931 9.9408 1.49614C9.27115 0.82543 7.6407 0.737946 7.6407 1.35034ZM9.24203 19.4305C9.70788 19.2264 9.73699 19.3429 9.59142 20.3344C9.50407 20.9468 9.53319 21.676 9.67876 21.9384C9.91168 22.3467 9.82434 22.4925 9.30026 22.6383C8.95088 22.7258 8.57238 22.8132 8.48504 22.8132C8.39769 22.8132 8.223 22.2009 8.13565 21.4135C8.01919 20.6553 7.8445 19.7221 7.75716 19.3139C7.55335 18.614 7.55335 18.5848 8.13565 19.1098C8.51415 19.4305 8.92177 19.5472 9.24203 19.4305Z" fill="black"/>
<path d="M61.4452 1.26277C60.9212 1.55439 60.8338 1.37942 63.3086 5.08293C63.5998 5.52035 63.8327 5.92862 63.8327 6.0161C63.8327 6.07443 63.1048 6.30772 62.2022 6.51185C60.9503 6.80346 60.368 6.80347 59.6401 6.54101C59.116 6.33688 58.5628 6.19107 58.4173 6.19107C58.2717 6.19107 58.1261 9.07806 58.1261 13.1315C58.097 16.9225 57.9223 22.3757 57.7476 25.2043C57.4564 30.016 57.4856 30.4826 58.0096 32.2031C58.3299 33.2238 58.7666 34.3027 59.0287 34.6235C59.4654 35.2067 59.4945 35.1776 60.4844 34.0694C61.9111 32.4656 67.1227 24.8544 66.948 24.6794C66.8607 24.5919 65.2884 25.5834 63.4542 26.8665C61.6199 28.1788 59.9895 29.2286 59.8148 29.2286C59.6692 29.2286 59.5819 28.0913 59.6692 26.3708C59.9021 20.0719 60.1059 17.564 60.368 17.739C60.5135 17.8265 61.5326 17.7098 62.6098 17.4474C63.6871 17.2141 65.6669 16.8641 67.0354 16.6892C70.3836 16.2809 70.8203 16.1643 70.8203 15.6977C70.8203 15.4935 70.5583 15.0853 70.238 14.7937C69.8887 14.4729 69.7431 14.1521 69.9178 13.948C70.0633 13.773 70.8495 11.9942 71.6647 9.98207L73.1496 6.33688L71.9267 5.22874C71.228 4.58719 70.5001 4.17893 70.238 4.26641C70.0051 4.3539 68.9279 4.733 67.8506 5.1121C66.7442 5.52036 65.8708 5.75365 65.8416 5.66617C65.8416 5.54952 65.8416 4.90797 65.8708 4.23725C65.929 2.92498 65.2884 1.40858 64.5606 1.11697C63.8327 0.854508 61.9984 0.912832 61.4452 1.26277ZM68.957 7.5325C68.8405 7.96993 68.6658 8.69896 68.5785 9.16555C68.462 9.77794 68.2873 9.95291 67.967 9.83626C67.3847 9.60297 61.1832 11.79 61.2997 12.1691C61.3579 12.3149 61.7655 12.6649 62.1731 12.8982C62.901 13.3064 63.163 13.2773 65.6087 12.4024L68.2582 11.4693L68.0253 12.2566C67.9088 12.694 67.7924 13.3939 67.8215 13.8313C67.8215 14.2979 67.8215 14.6479 67.7924 14.6479C67.7632 14.6479 66.0163 14.9686 63.8618 15.3477L59.9895 16.0476L60.1059 12.869C60.1933 10.6236 60.368 9.54465 60.6591 9.28219C60.892 9.07806 62.3769 8.55316 63.9783 8.11573C65.5796 7.67831 67.2974 7.21173 67.7632 7.09508C69.1025 6.68682 69.1608 6.71598 68.957 7.5325Z" fill="black"/>
<path d="M50.0909 2.89592C49.7998 2.95425 49.5669 3.10005 49.5669 3.18754C49.5669 3.53748 52.3328 8.58242 52.7113 8.87403C53.0024 9.13649 53.2063 9.07816 53.5848 8.72823C54.4873 7.79506 53.9341 4.79142 52.5366 3.18754C52.129 2.72095 51.1973 2.60431 50.0909 2.89592Z" fill="black"/>
<path d="M44.646 11.4111C44.2384 11.5278 43.889 11.7319 43.8308 11.8777C43.7435 12.2276 47.1208 16.3394 47.9069 16.806C49.4792 17.7683 49.2171 13.4816 47.5867 11.6444C47.1499 11.1487 45.9562 11.032 44.646 11.4111Z" fill="black"/>
<path d="M28.7201 15.0563C28.6327 15.3187 28.691 15.9311 28.8657 16.4269C29.2733 17.5933 29.2733 24.8546 28.8948 25.8752C28.7201 26.3126 28.3416 26.7209 28.0213 26.8084C27.3226 26.9834 27.2934 27.5083 27.9049 28.6747C28.2251 29.3454 28.4872 29.5204 28.8366 29.3746C31.1949 28.3831 34.9799 28.004 36.1736 28.6456C36.5521 28.8497 36.785 28.8205 37.047 28.4998C37.542 27.9165 37.1635 27.0125 36.0571 26.1668L35.1254 25.467L33.0583 25.9919C31.8937 26.2835 30.9037 26.4876 30.8455 26.4001C30.7582 26.3418 30.8164 25.8461 30.9328 25.3503C31.0784 24.8254 31.2822 23.7173 31.3696 22.8716C31.5734 21.3552 31.6316 21.2969 32.8836 20.7428C33.6115 20.4512 34.6305 20.1887 35.1837 20.1887C36.3192 20.1887 36.6685 19.6638 36.2027 18.7598C35.6786 17.7975 34.7761 17.4475 34.1938 17.9433C33.4368 18.5848 31.8937 19.3139 31.6898 19.1097C31.6025 18.9931 31.5152 18.2349 31.5152 17.3892C31.5152 15.8437 31.0493 14.9396 30.205 14.9396C30.0012 14.9396 29.6227 14.8522 29.3606 14.7647C29.0986 14.648 28.8366 14.7647 28.7201 15.0563Z" fill="black"/>
<path d="M72.8591 15.7853C72.8591 16.8351 71.8983 18.0308 69.6856 19.7221L68.0551 21.0052L66.9487 20.0429C65.3183 18.614 64.0372 18.0891 63.1637 18.4099C61.9991 18.8473 62.0283 19.1681 63.2802 19.7221C64.0372 20.0721 64.9689 20.9178 66.0753 22.3175C68.5209 25.4378 70.4134 27.3625 73.0047 29.2871C75.5668 31.1826 75.3048 31.1535 78.5366 29.987C79.6721 29.5787 81.1278 29.2288 81.8266 29.2288C83.4571 29.2288 83.3697 28.7914 81.681 28.3831C78.7986 27.6832 74.8098 25.9044 72.335 24.2713C69.0159 22.0259 68.5501 21.6176 69.0159 21.4427C70.7919 20.772 75.2175 18.3807 75.4213 17.9433C75.7706 17.2726 75.363 16.3977 74.2566 15.552C73.2085 14.7355 72.8591 14.7938 72.8591 15.7853Z" fill="black"/>
<path d="M18.821 16.7184C18.7336 16.8934 18.7918 17.1267 18.9665 17.2433C19.7818 17.7682 20.102 21.3259 19.6944 25.3794C19.5197 27.0416 19.4324 27.1582 18.6754 27.3332C17.307 27.6248 17.1905 28.0622 17.8602 30.0452C18.7045 32.5823 19.0539 32.7572 20.1312 31.1825C20.6261 30.4535 22.0528 28.9371 23.3338 27.7706C25.6048 25.7293 26.7694 24.3587 26.4783 24.0671C26.3909 24.0088 25.3137 24.4171 24.0617 24.9711C22.8389 25.5544 21.7907 25.9918 21.7325 25.9335C21.7034 25.9043 21.7907 24.8836 21.9654 23.688L22.2566 21.5009L23.9744 20.9468C24.906 20.6552 25.896 20.247 26.1871 20.0137C26.6821 19.6346 26.6821 19.5762 25.9251 18.9055L25.1099 18.1765L23.887 18.8764C22.3439 19.7804 22.1983 19.7804 22.1983 18.9055C22.1983 17.3891 19.4906 15.6394 18.821 16.7184Z" fill="black"/>
<path d="M49.8001 22.959C46.9759 25.7294 46.9759 25.7294 45.8113 25.5544C44.9379 25.4086 44.5885 25.4669 44.472 25.7585C44.21 26.4584 46.8886 31.2117 47.8203 31.7075C48.6064 32.1157 48.6937 32.1157 49.1013 31.5033C49.3634 31.1242 49.5672 30.2494 49.5672 29.4912C49.5672 27.7707 50.4406 25.2045 51.8964 22.7549C53.0319 20.8594 53.2939 20.1887 52.8572 20.1887C52.7116 20.1887 51.3432 21.4426 49.8001 22.959Z" fill="black"/>
<path d="M13.6967 26.4876C12.8524 26.925 2.05068 30.1036 1.38103 30.1036C0.827841 30.1036 0.827841 30.4244 1.43926 31.7075C1.78864 32.4073 2.07979 32.7281 2.40006 32.6115C2.63298 32.5532 4.46724 31.795 6.41796 30.9784C10.1156 29.4329 13.7841 28.3539 15.269 28.3539C16.288 28.3539 16.6374 27.654 15.9677 26.925C15.269 26.1668 14.5702 26.021 13.6967 26.4876Z" fill="black"/>
</g>
<defs>
<clipPath id="clip0_308_46">
<rect width="83" height="35" fill="white"/>
</clipPath>
</defs>
</svg>
